<?xml version="1.0" encoding="utf-8" standalone="no"?>
<!DOCTYPE svg PUBLIC "-//W3C//DTD SVG 1.1//EN" "http://www.w3.org/Graphics/SVG/1.1/DTD/svg11.dtd">
<!-- Created with Skedio (http://skedio.shturmsoft.com/) -->
<svg version="1.1" xmlns="http://www.w3.org/2000/svg" xmlns:xlink="http://www.w3.org/1999/xlink" width="411pt" height="470pt" viewBox="0 0 411 470">
<g id="layer10">
	<path fill="none" stroke="#528031" stroke-width="16.00" stroke-linecap="round" stroke-linejoin="round" d="M91.179 41.230C94.144,42.659 97.585,43.659 100.075,45.518 102.381,47.240 103.255,49.684 105.769,51.788 109.328,54.767 117.169,57.487 120.151,60.810 122.226,63.123 122.719,65.254 123.743,68.208 125.124,72.189 124.740,79.319 126.942,82.809 128.676,85.557 131.934,87.505 134.256,88.491 135.956,89.213 138.761,89.904 139.170,89.198 139.965,87.828 131.936,78.656 127.653,74.439 123.606,70.457 117.772,68.572 114.322,64.373 110.845,60.139 105.529,50.871 106.920,49.100 108.079,47.626 113.966,50.185 118.419,51.583 125.031,53.658 142.139,62.012 142.354,61.578 142.529,61.223 131.982,55.176 127.327,52.969 123.556,51.180 116.782,48.742 116.711,48.908 116.618,49.122 128.975,54.342 133.756,57.143 137.520,59.348 140.393,60.933 143.373,63.861 146.895,67.321 149.554,73.061 152.992,77.127 156.278,81.014 161.320,84.518 163.485,87.812 164.943,90.031 166.628,93.612 166.045,94.106 165.360,94.688 161.158,91.584 158.018,89.186 152.605,85.052 139.213,68.955 137.637,70.024 136.252,70.964 143.103,85.725 145.568,90.114 146.911,92.506 147.492,93.220 149.438,95.232 153.200,99.123 168.069,110.346 168.076,110.337 168.082,110.330 157.340,100.991 157.023,101.315 156.677,101.667 163.773,110.269 168.025,114.282 172.610,118.611 181.233,125.745 183.817,126.189 184.563,126.317 184.999,126.176 185.385,125.694 186.194,124.685 186.440,121.140 186.010,118.491 185.430,114.920 183.790,111.320 180.791,106.426 174.927,96.859 148.510,67.934 148.755,67.721 148.901,67.594 157.641,76.383 160.816,80.840 163.567,84.702 164.848,89.213 167.167,92.615 169.174,95.560 171.160,97.818 173.642,100.273 176.377,102.978 182.060,108.656 183.025,108.033 183.875,107.485 182.073,102.474 180.541,98.922 178.036,93.114 172.411,84.029 167.381,77.369 162.387,70.757 156.124,65.178 150.496,59.082 "/>
</g>
<g id="layer9">
	<path fill="none" stroke="#3D5F25" stroke-width="16.00" stroke-linecap="round" stroke-linejoin="round" d="M203.366 146.554C197.011,125.910 194.157,101.425 184.302,84.621 175.794,70.114 165.422,58.250 150.949,49.688 133.786,39.533 90.221,25.675 85.307,32.226 80.713,38.350 104.614,69.263 116.015,83.041 125.603,94.626 134.861,101.720 147.250,111.093 162.829,122.879 184.660,134.734 203.366,146.554 "/>
</g>
<g id="layer8">
	<path fill="none" stroke="#72382D" stroke-width="5.00" stroke-linecap="round" stroke-linejoin="round" d="M241.566 86.631C240.773,90.598 240.580,93.893 239.186,98.532 237.083,105.530 232.298,117.273 228.775,124.111 226.231,129.052 223.174,132.197 221.059,136.289 219.099,140.084 217.924,143.935 216.357,147.758 "/>
	<path fill="none" stroke="#72382D" stroke-width="16.00" stroke-linecap="round" stroke-linejoin="round" d="M222.529 115.782C221.438,119.352 220.096,122.132 219.257,126.491 218.007,132.975 218.374,143.063 217.174,151.180 215.985,159.223 212.506,169.897 212.118,174.977 211.937,177.334 212.170,180.195 212.415,180.206 212.949,180.231 214.550,163.131 216.094,155.688 217.413,149.332 221.383,138.511 220.744,138.217 220.410,138.063 218.928,140.287 217.950,142.282 215.845,146.579 212.613,156.780 210.993,164.074 209.423,171.137 209.797,181.080 208.251,185.348 207.505,187.406 205.988,189.713 205.573,189.553 204.691,189.211 208.069,173.239 209.440,167.243 210.386,163.110 210.874,160.568 212.393,156.897 214.309,152.270 219.886,144.934 220.690,141.959 221.001,140.809 220.942,139.441 220.744,139.407 219.930,139.268 210.338,174.147 207.372,180.291 206.435,182.231 204.808,183.702 205.007,183.872 205.540,184.330 224.778,164.146 227.883,163.188 228.539,162.986 229.002,163.077 229.245,163.376 229.576,163.782 229.249,164.711 229.073,165.900 228.631,168.881 225.852,181.457 225.503,181.397 224.976,181.306 227.385,157.849 229.699,145.250 232.300,131.090 238.695,105.115 240.971,100.683 241.427,99.795 241.918,99.166 242.161,99.273 242.977,99.635 240.928,113.083 239.386,119.942 237.795,127.015 234.611,139.306 232.642,141.066 232.128,141.527 231.453,141.562 231.155,141.364 230.858,141.166 230.886,140.528 230.858,139.877 230.805,138.651 230.936,137.076 231.453,134.543 232.817,127.846 238.290,107.449 242.211,98.611 244.716,92.966 246.747,89.603 250.136,85.517 253.895,80.984 259.494,77.138 264.173,72.948 "/>
	<path fill="none" stroke="#72382D" stroke-width="16.00" stroke-linecap="round" stroke-linejoin="round" d="M259.414 81.872C258.582,81.910 257.874,81.379 256.918,81.988 253.441,84.204 245.060,109.578 241.566,111.298 240.588,111.779 239.387,111.413 239.014,110.851 238.525,110.111 239.286,108.344 240.022,106.490 241.562,102.613 246.604,95.234 249.895,89.606 "/>
	<path fill="none" stroke="#72382D" stroke-width="16.00" stroke-linecap="round" stroke-linejoin="round" d="M241.200 70.200C239.042,77.660 237.434,85.791 234.725,92.580 232.293,98.673 228.461,107.259 226.098,109.238 225.237,109.960 224.043,110.306 223.719,109.978 223.225,109.479 224.447,106.442 225.503,104.479 227.010,101.680 231.437,98.694 232.840,95.292 234.181,92.038 234.699,84.805 234.000,84.600 233.046,84.320 228.249,98.305 225.070,102.532 222.927,105.383 219.981,108.132 218.364,108.697 217.648,108.947 216.776,108.990 216.579,108.568 215.782,106.853 232.096,83.943 234.000,84.600 235.023,84.953 234.682,89.370 233.690,93.151 231.348,102.068 214.921,124.499 211.820,135.433 210.034,141.730 210.309,151.139 210.630,151.180 211.077,151.238 215.658,127.334 216.143,121.097 216.359,118.315 216.231,115.028 215.985,115.014 215.263,114.974 206.397,153.962 208.846,166.611 210.424,174.765 216.015,179.137 219.600,185.400 "/>
	<path fill="none" stroke="#72382D" stroke-width="16.00" stroke-linecap="round" stroke-linejoin="round" d="M246.920 68.784C249.102,71.800 252.796,78.118 253.465,77.834 253.986,77.613 252.671,73.387 252.275,71.163 "/>
	<path fill="none" stroke="#72382D" stroke-width="16.00" stroke-linecap="round" stroke-linejoin="round" d="M249.895 73.543C249.697,70.908 248.225,66.540 249.300,65.637 250.198,64.883 252.870,66.545 254.654,66.999 "/>
	<path fill="none" stroke="#72382D" stroke-width="16.00" stroke-linecap="round" stroke-linejoin="round" d="M258.819 69.378C256.241,66.800 253.663,64.222 251.085,61.644 "/>
	<path fill="none" stroke="#72382D" stroke-width="16.00" stroke-linecap="round" stroke-linejoin="round" d="M243.351 61.644C233.034,78.896 222.717,96.148 212.400,113.400 "/>
</g>
<g id="layer5">
	<path fill="none" stroke="#551A10" stroke-width="8.00" stroke-linecap="round" stroke-linejoin="round" d="M190.800 203.097L203.038,135.588 208.962,102.908 238.245,59.419 245.287,48.960 272.530,72.081 245.287,118.322 227.124,203.097 190.800,203.097 "/>
</g>
<g id="layer6">
	<path fill="none" stroke="#A82222" stroke-width="16.00" stroke-linecap="round" stroke-linejoin="round" d="M165.922 261.759C158.548,277.992 149.605,294.934 143.799,310.458 138.734,323.999 135.890,339.123 132.184,349.463 129.656,356.515 123.760,365.780 124.833,366.904 125.313,367.407 126.945,366.703 128.389,365.598 132.812,362.212 142.627,346.463 148.936,336.587 155.120,326.904 159.354,316.606 165.930,306.945 172.901,296.703 188.119,275.888 189.915,276.957 192.543,278.521 165.334,337.831 157.954,352.764 154.727,359.295 149.567,365.700 150.150,366.426 150.337,366.659 151.081,366.507 151.688,365.948 155.134,362.777 164.816,332.487 171.145,317.820 176.573,305.240 184.465,289.331 187.083,283.118 188.026,280.879 188.795,279.912 188.863,278.487 188.919,277.300 188.691,275.395 187.938,275.172 186.576,274.768 182.921,278.826 179.494,282.598 172.070,290.772 156.882,312.893 148.593,325.384 142.431,334.670 136.878,345.554 133.442,350.305 131.952,352.365 130.427,354.636 129.882,354.478 129.552,354.382 129.392,353.510 129.599,352.481 130.597,347.520 146.076,326.537 153.575,312.261 161.614,296.958 168.765,277.460 175.994,263.356 181.728,252.169 191.455,238.930 192.735,233.942 193.131,232.397 193.121,230.842 192.686,230.694 191.957,230.444 188.476,235.185 186.964,237.843 185.408,240.578 185.575,242.694 183.553,246.923 178.151,258.226 155.498,293.240 148.396,306.597 144.931,313.114 143.819,315.930 141.299,321.481 138.162,328.394 132.984,338.991 131.173,344.963 130.116,348.448 130.579,349.924 129.599,353.522 127.819,360.060 121.863,378.661 119.745,380.514 119.318,380.887 118.752,380.940 118.607,380.764 118.348,380.452 119.145,379.149 120.060,377.361 124.123,369.422 144.292,335.625 157.728,314.879 171.626,293.421 192.722,265.723 202.245,250.767 207.173,243.027 210.606,233.589 212.760,232.700 213.333,232.464 213.932,232.550 214.193,233.083 216.939,238.673 150.258,383.254 151.106,383.632 151.644,383.871 169.250,343.060 179.083,324.333 188.319,306.743 201.028,289.356 208.133,274.312 213.559,262.823 221.209,244.400 219.901,242.697 219.614,242.324 219.004,242.500 218.283,242.853 215.546,244.193 207.550,252.702 202.206,259.891 194.901,269.716 189.015,284.305 180.379,297.826 169.803,314.383 152.079,336.976 142.530,351.437 136.261,360.929 130.929,371.407 127.688,375.507 126.433,377.094 125.496,378.226 124.690,378.505 124.283,378.645 123.774,378.619 123.616,378.375 123.345,377.957 123.960,376.756 124.550,375.361 126.094,371.709 131.195,362.093 134.906,356.379 138.249,351.230 142.068,347.924 145.567,342.427 149.998,335.468 153.387,326.312 158.600,317.478 164.903,306.798 173.184,294.931 181.321,283.169 190.187,270.354 208.821,242.877 209.925,243.565 211.500,244.547 174.479,312.390 163.162,331.340 157.505,340.812 153.912,344.220 149.393,352.030 143.967,361.407 137.677,374.577 133.423,384.110 130.116,391.520 124.538,403.742 125.440,404.236 126.693,404.921 143.367,380.353 149.834,370.295 154.708,362.717 156.197,357.325 161.621,349.699 169.570,338.521 183.493,325.849 195.103,311.261 209.244,293.492 234.768,251.986 239.524,250.051 240.172,249.787 240.705,249.855 240.908,250.289 242.624,253.944 200.490,318.112 191.005,336.823 186.633,345.446 186.421,348.113 182.446,356.235 175.383,370.667 148.653,413.818 150.628,415.175 152.623,416.546 183.747,378.456 195.079,363.371 203.133,352.650 209.782,341.418 213.960,334.516 216.221,330.781 218.065,328.123 218.883,325.697 219.400,324.166 219.639,321.766 219.451,321.717 219.122,321.631 217.387,328.045 215.031,333.058 209.929,343.916 192.652,371.386 187.304,382.985 184.592,388.865 180.832,395.502 182.172,396.737 183.475,397.938 190.443,393.464 194.735,390.839 199.917,387.671 206.020,381.426 210.736,378.454 214.084,376.345 215.909,375.422 219.845,373.876 226.400,371.302 241.821,365.052 246.996,365.992 249.341,366.418 250.774,368.109 251.645,369.466 252.343,370.555 252.497,371.529 252.428,373.117 252.294,376.199 250.253,382.296 248.294,386.558 246.298,390.901 243.505,396.034 240.493,398.906 238.120,401.168 236.409,401.595 232.607,403.377 223.868,407.473 199.983,416.497 187.793,420.287 179.650,422.819 170.577,425.992 167.043,425.410 165.712,425.190 164.607,424.636 164.488,423.778 164.256,422.105 168.610,418.143 172.135,415.175 177.577,410.594 188.407,405.892 195.439,400.715 201.908,395.952 207.037,390.116 212.979,385.520 218.604,381.169 224.290,376.338 230.108,373.727 235.218,371.434 242.326,371.354 245.690,369.903 247.479,369.131 248.843,367.215 249.504,367.438 249.893,367.569 250.236,368.338 250.038,368.915 249.454,370.618 242.858,372.975 238.442,376.228 231.774,381.139 221.855,391.379 214.671,396.536 209.345,400.360 204.704,401.841 199.914,405.348 194.719,409.153 183.948,416.085 184.785,418.775 185.648,421.548 199.533,421.003 206.114,421.403 211.743,421.746 217.515,420.894 221.840,421.388 224.946,421.743 226.593,422.857 229.740,423.225 234.263,423.754 246.472,422.897 246.492,423.300 246.531,424.087 204.081,427.761 182.875,429.991 "/>
	<path fill="none" stroke="#A82222" stroke-width="16.00" stroke-linecap="round" stroke-linejoin="round" d="M179.304 429.991C164.010,430.947 140.917,435.692 133.423,432.859 130.409,431.719 129.601,430.122 128.166,427.602 125.950,423.713 123.956,416.189 123.780,410.455 123.606,404.764 124.933,398.744 127.059,393.328 129.264,387.711 133.032,382.192 137.006,377.420 140.997,372.628 146.741,369.182 150.970,364.651 155.082,360.245 160.442,354.104 162.099,350.654 162.912,348.961 162.317,347.202 163.055,346.454 163.612,345.889 165.249,345.551 165.444,345.875 166.089,346.944 152.198,359.931 147.761,365.948 144.537,370.320 142.798,373.361 140.397,377.997 137.390,383.803 132.433,394.892 131.630,398.329 131.372,399.431 131.182,399.899 131.511,400.605 131.966,401.580 133.541,402.516 134.993,403.227 136.889,404.155 139.609,404.839 142.170,405.175 145.008,405.547 149.212,405.670 151.305,405.139 152.510,404.833 152.764,404.509 153.974,403.705 157.122,401.613 164.070,396.096 169.926,390.810 177.939,383.576 197.532,366.878 196.988,363.559 196.830,362.600 195.297,362.024 194.120,362.125 191.952,362.311 188.815,365.521 185.365,368.572 179.285,373.949 169.536,386.064 162.173,393.107 156.067,398.948 150.280,402.314 144.611,408.288 138.096,415.155 130.244,427.797 125.799,432.510 123.723,434.710 120.963,437.103 120.767,436.912 120.122,436.285 152.943,396.557 166.792,381.343 177.160,369.952 186.938,359.447 195.386,352.735 201.083,348.208 207.802,342.418 210.999,343.008 212.787,343.337 213.567,345.606 214.479,347.595 215.758,350.385 216.899,354.588 216.850,358.681 216.789,363.788 214.865,369.971 212.748,375.856 210.316,382.618 207.258,390.346 202.483,396.776 197.223,403.860 188.560,412.183 181.777,416.048 176.756,418.909 172.916,419.293 166.912,420.426 158.115,422.085 141.692,423.321 133.764,423.300 129.327,423.288 127.780,423.081 123.386,422.344 115.472,421.017 98.360,418.336 90.549,414.290 85.308,411.574 82.067,407.699 79.060,404.304 76.592,401.518 75.419,399.484 73.320,395.813 69.885,389.807 63.412,377.457 61.520,371.044 60.408,367.275 60.442,365.556 60.299,361.647 60.064,355.220 60.146,336.298 61.733,336.071 63.182,335.864 65.605,349.826 68.855,356.202 72.199,362.763 76.006,367.962 81.671,374.826 89.916,384.815 105.639,403.366 115.261,408.962 120.707,412.129 124.507,412.192 130.084,412.907 137.032,413.798 147.811,413.705 153.892,412.786 157.807,412.194 163.299,409.822 163.331,409.918 163.377,410.054 150.852,415.376 144.852,416.617 139.480,417.729 134.811,417.893 129.121,417.565 122.273,417.170 113.206,416.077 106.639,413.579 100.819,411.365 96.504,408.600 91.365,404.183 84.441,398.232 73.699,384.846 70.336,379.330 68.886,376.953 69.207,375.721 68.019,373.741 66.388,371.022 61.071,364.722 60.777,364.926 60.371,365.208 68.710,379.569 71.747,383.836 73.462,386.247 74.279,387.226 76.300,389.118 79.317,391.942 84.004,395.806 88.714,398.469 93.956,401.433 100.229,403.887 106.566,405.675 113.325,407.583 122.483,408.936 128.162,409.303 131.821,409.539 134.142,409.669 137.246,408.962 140.810,408.151 144.575,405.776 148.239,404.183 "/>
	<path fill="none" stroke="#A82222" stroke-width="16.00" stroke-linecap="round" stroke-linejoin="round" d="M131.511 429.991C128.289,428.705 125.900,426.748 121.845,426.132 115.583,425.181 105.348,427.430 97.100,428.079 "/>
	<path fill="none" stroke="#A82222" stroke-width="16.00" stroke-linecap="round" stroke-linejoin="round" d="M197.466 423.300C197.466,422.855 197.183,422.427 197.466,421.964 198.171,420.810 201.620,419.509 204.853,418.173 210.457,415.856 222.806,412.750 228.614,410.571 232.076,409.271 236.073,408.169 236.749,407.050 237.001,406.634 236.441,406.028 236.656,405.823 236.944,405.548 238.452,405.619 238.844,406.095 239.380,406.744 237.737,409.333 238.568,410.195 240.117,411.800 246.858,411.131 252.845,409.739 264.370,407.059 290.583,392.911 301.067,387.912 306.211,385.459 311.716,383.734 312.462,382.198 312.715,381.678 311.948,381.239 312.169,380.764 312.616,379.805 315.659,378.868 317.404,377.919 "/>
	<path fill="none" stroke="#A82222" stroke-width="16.00" stroke-linecap="round" stroke-linejoin="round" d="M269.155 303.817C263.923,305.955 258.474,306.828 253.459,310.232 247.379,314.358 243.564,319.918 236.178,328.192 221.320,344.835 173.635,406.921 171.868,405.884 171.452,405.640 172.578,403.070 173.889,400.676 177.599,393.898 190.043,378.080 200.333,364.515 213.986,346.518 240.567,315.749 249.083,302.542 252.737,296.874 256.599,291.103 255.773,289.654 255.390,288.982 254.092,289.014 252.646,289.479 247.542,291.122 232.737,303.813 222.258,313.987 208.727,327.124 181.009,364.253 179.915,363.426 178.732,362.531 210.153,316.668 222.069,299.997 230.141,288.704 237.891,280.993 243.347,272.274 247.696,265.324 252.613,256.221 253.275,252.419 253.522,250.996 253.665,249.815 252.906,249.333 251.244,248.278 243.441,252.014 238.777,254.022 233.856,256.142 229.865,257.995 224.167,261.866 214.610,268.360 199.186,282.371 188.505,291.951 179.353,300.160 171.788,307.394 163.708,315.590 155.492,323.924 142.646,341.903 139.636,341.574 138.810,341.483 138.254,340.441 138.291,339.273 138.419,335.215 148.114,323.872 156.256,312.581 171.334,291.670 207.020,243.293 223.641,225.217 232.017,216.107 241.216,210.320 244.319,206.303 245.500,204.774 246.631,203.323 246.215,202.710 245.633,201.855 241.562,202.818 238.337,203.567 232.818,204.848 225.370,207.976 216.517,211.482 202.338,217.095 161.918,235.207 161.823,234.995 161.742,234.814 187.546,222.190 201.324,216.810 215.729,211.186 235.889,206.565 246.543,202.175 252.661,199.653 256.593,196.711 260.527,195.094 263.242,193.978 265.070,193.191 267.632,192.807 270.493,192.379 275.553,192.001 276.941,192.937 277.602,193.382 277.852,194.114 277.758,194.880 277.596,196.201 275.639,198.307 274.005,199.900 271.985,201.869 270.252,203.231 266.188,205.438 255.247,211.379 219.230,221.306 201.657,231.098 187.951,238.735 177.002,248.523 167.726,256.269 160.734,262.107 155.998,266.478 150.216,272.686 143.658,279.726 134.814,290.623 130.751,296.642 128.522,299.944 128.409,301.705 126.254,304.773 122.902,309.546 110.789,320.972 111.438,321.692 112.226,322.566 128.151,310.609 138.559,302.515 153.919,290.570 176.758,269.349 193.577,255.562 207.398,244.233 232.645,227.235 231.962,225.352 231.795,224.892 230.397,225.005 229.049,225.436 224.828,226.786 213.249,235.181 205.294,241.334 196.360,248.244 187.862,255.870 178.352,265.293 166.356,277.178 147.563,297.389 139.837,307.804 135.845,313.186 134.934,314.758 131.956,320.942 125.776,333.775 112.786,369.302 108.878,382.754 107.045,389.065 106.016,393.265 105.879,396.964 105.792,399.309 105.524,402.340 106.659,402.749 108.976,403.585 117.543,393.522 124.549,386.266 136.129,374.271 155.011,349.278 167.834,335.839 177.113,326.113 185.702,319.768 193.149,311.957 199.643,305.147 209.764,291.430 210.370,291.869 211.035,292.352 199.407,308.784 193.763,319.168 186.711,332.143 179.057,350.251 172.098,364.112 166.015,376.226 157.816,393.753 154.452,397.888 153.535,399.014 152.268,399.688 152.263,399.681 152.253,399.669 156.017,397.344 158.428,394.472 164.248,387.537 173.473,367.367 182.103,353.808 191.185,339.539 210.212,316.073 211.804,310.986 212.108,310.012 212.135,309.203 211.804,309.074 210.701,308.646 202.175,319.124 197.472,324.719 192.435,330.712 187.861,337.845 182.617,344.007 177.392,350.147 172.415,353.928 166.074,361.629 155.712,374.213 126.322,411.225 128.367,414.018 129.085,414.998 132.769,413.250 135.927,411.533 142.915,407.735 156.610,394.236 166.259,387.090 174.570,380.935 183.452,376.589 190.165,370.855 195.907,365.950 200.112,359.662 204.635,355.434 208.190,352.111 210.270,350.418 214.743,347.156 222.579,341.442 240.036,331.459 248.411,325.386 253.710,321.542 256.313,318.251 260.887,315.278 265.696,312.153 274.156,307.479 276.691,307.218 277.453,307.140 278.004,307.155 278.236,307.641 279.018,309.274 274.245,317.813 270.995,324.240 266.171,333.782 257.525,346.661 250.994,358.779 243.987,371.783 229.141,399.030 230.443,399.882 231.474,400.555 242.267,386.563 248.874,377.731 257.811,365.784 272.573,342.973 278.229,333.938 280.692,330.002 281.563,328.993 283.268,325.296 285.973,319.434 292.820,305.752 291.577,301.552 290.987,299.558 288.995,298.286 287.095,298.082 284.316,297.783 280.530,300.852 276.157,303.292 268.978,307.297 255.487,315.708 248.741,320.994 244.325,324.453 241.738,325.809 238.568,330.581 233.142,338.750 221.099,365.649 224.230,368.944 226.149,370.965 234.078,366.868 238.910,364.299 244.631,361.259 250.995,355.513 255.816,350.891 260.029,346.852 262.704,342.039 266.590,338.423 270.266,335.003 274.195,333.225 278.410,329.612 283.912,324.898 291.355,317.487 296.322,312.018 300.258,307.683 303.418,303.661 306.240,299.758 308.632,296.450 312.322,292.130 312.373,290.231 312.395,289.440 312.055,288.648 311.400,288.523 309.010,288.069 299.039,297.157 291.033,304.880 276.710,318.698 236.133,367.924 236.376,368.140 236.508,368.258 247.584,357.003 253.153,349.975 259.838,341.539 266.687,331.517 273.106,320.463 280.625,307.513 288.415,288.044 294.709,276.606 298.923,268.949 305.352,261.925 306.131,257.912 306.463,256.202 306.024,254.408 305.478,253.990 305.177,253.760 304.841,253.901 304.275,254.112 302.326,254.839 297.329,258.003 292.557,262.347 282.358,271.630 258.512,300.863 250.099,312.106 246.090,317.461 244.826,319.310 241.981,324.535 237.660,332.471 230.752,354.559 228.053,355.832 227.491,356.097 226.781,355.264 226.620,355.434 226.457,355.605 227.007,356.882 227.097,356.868 227.215,356.849 226.651,355.442 227.097,354.303 228.580,350.522 238.715,343.229 246.312,333.578 260.673,315.336 290.124,269.977 302.175,249.456 308.780,238.209 314.710,228.268 316.070,222.492 316.659,219.987 316.928,217.703 315.993,216.789 315.112,215.927 312.600,216.391 310.926,216.834 309.048,217.331 307.271,218.838 305.349,219.944 303.260,221.146 300.859,222.159 298.860,223.795 296.701,225.562 295.782,226.814 292.959,230.327 283.547,242.042 245.357,294.850 236.178,310.030 232.737,315.722 231.577,321.544 229.965,322.303 229.438,322.551 228.694,321.799 228.531,321.979 228.366,322.161 228.591,323.318 229.009,323.412 230.963,323.853 244.783,308.547 251.810,299.673 259.368,290.130 266.555,277.142 272.494,267.710 277.146,260.323 280.750,255.078 284.692,247.797 289.184,239.500 296.355,225.913 297.684,220.401 298.217,218.186 298.748,216.097 297.831,215.510 296.129,214.420 288.207,219.543 282.732,223.026 275.162,227.842 265.207,236.418 257.491,243.081 250.518,249.103 244.048,254.976 238.280,261.091 232.961,266.730 227.039,275.515 223.945,278.293 222.734,279.382 221.362,280.384 221.086,280.197 220.913,280.080 221.001,279.491 221.362,278.884 223.184,275.825 240.462,263.519 247.351,256.825 252.415,251.905 255.070,247.640 259.667,243.132 264.756,238.140 270.557,232.956 276.744,228.362 283.271,223.516 294.897,217.998 297.974,214.922 299.090,213.806 299.765,212.882 299.743,212.128 299.727,211.597 299.477,211.073 298.787,210.799 295.885,209.648 278.520,214.287 270.368,216.313 264.070,217.878 259.548,219.223 253.839,221.346 247.408,223.738 240.789,225.342 233.789,230.216 223.527,237.359 206.168,261.093 200.958,264.002 199.670,264.721 198.149,264.642 198.145,264.627 198.140,264.606 200.851,264.610 203.235,263.341 212.469,258.423 249.863,219.104 261.868,210.739 266.553,207.475 269.175,205.681 272.478,205.136 275.085,204.706 278.187,205.256 279.862,206.319 281.142,207.132 281.824,208.207 282.324,209.929 283.244,213.095 282.583,219.635 281.833,224.684 281.014,230.196 279.531,237.058 277.280,241.686 275.464,245.422 272.959,247.893 270.398,250.862 267.690,254.001 265.211,256.652 261.378,259.978 255.739,264.872 243.853,274.068 239.094,276.527 237.118,277.548 234.800,278.423 234.547,278.009 234.063,277.219 242.916,270.566 246.904,265.708 251.650,259.928 256.769,252.186 260.583,245.151 264.219,238.443 268.502,229.717 269.458,224.528 269.999,221.590 270.308,218.077 269.155,217.335 268.024,216.606 265.124,218.598 262.722,219.934 259.135,221.929 254.140,225.452 250.235,229.063 246.018,232.962 241.609,237.841 238.483,242.744 235.498,247.425 234.551,252.219 231.695,257.722 227.965,264.911 216.180,280.731 217.470,281.901 218.557,282.887 227.871,275.117 233.573,270.187 241.125,263.658 252.174,252.133 257.990,245.205 261.702,240.783 264.495,234.285 266.288,233.648 266.867,233.443 267.411,233.605 267.722,234.039 268.430,235.031 268.036,238.329 267.227,241.771 265.389,249.588 256.750,270.453 251.750,278.604 248.897,283.253 246.296,283.771 243.347,288.523 237.814,297.440 223.127,329.223 225.186,330.543 227.211,331.842 246.318,308.992 254.818,297.604 262.762,286.960 270.056,271.238 275.041,264.603 277.420,261.437 278.786,261.141 280.978,258.087 284.943,252.563 292.429,234.085 294.964,232.859 295.517,232.592 296.113,233.294 296.320,233.083 296.583,232.815 296.076,230.889 295.920,230.895 295.472,230.912 295.219,241.626 294.008,249.050 292.040,261.112 284.265,290.493 283.562,296.102 283.411,297.305 283.097,298.072 283.493,298.320 284.158,298.736 287.025,296.890 289.024,295.419 292.057,293.188 296.627,289.308 299.195,285.248 301.905,280.962 303.288,275.126 304.576,270.149 305.778,265.502 306.678,261.950 306.857,256.355 307.133,247.757 306.412,231.045 303.567,223.500 301.829,218.892 297.468,216.313 296.398,213.488 295.740,211.751 295.486,209.915 295.920,208.858 296.231,208.099 296.766,207.660 297.773,207.333 300.249,206.531 307.648,206.041 312.262,208.231 318.341,211.115 326.672,225.903 329.375,226.729 330.028,226.929 330.669,226.766 330.809,226.392 331.190,225.372 327.186,220.280 324.396,217.490 321.034,214.129 316.380,211.193 311.467,208.182 305.605,204.590 297.523,198.576 291.305,197.799 286.391,197.185 281.394,199.165 277.505,200.987 274.121,202.572 270.247,205.682 268.966,207.465 268.359,208.309 268.226,208.746 268.200,209.746 268.150,211.617 268.511,214.871 270.457,217.872 274.355,223.880 288.921,233.862 296.509,239.408 301.954,243.387 307.377,245.472 311.151,248.824 314.120,251.460 316.201,253.659 318.003,257.128 320.271,261.491 321.549,268.437 322.523,273.541 323.350,277.878 323.730,281.137 323.851,285.758 324.009,291.787 323.416,300.035 322.684,306.646 322.015,312.688 320.772,318.142 319.816,323.890 "/>
	<path fill="none" stroke="#A82222" stroke-width="16.00" stroke-linecap="round" stroke-linejoin="round" d="M126.732 245.509C126.254,245.509 125.919,245.149 125.298,245.509 121.200,247.889 101.030,284.602 94.336,299.787 89.864,309.930 87.860,319.486 85.774,326.324 84.470,330.598 83.549,332.916 82.762,336.794 81.813,341.469 80.472,347.712 80.860,352.510 81.197,356.686 82.241,363.037 84.196,364.037 85.504,364.705 87.065,363.509 89.252,362.225 94.898,358.913 106.885,348.335 116.217,338.706 128.295,326.245 146.332,302.685 154.176,292.331 157.960,287.336 160.138,284.544 162.171,280.910 163.836,277.933 164.992,275.165 165.895,272.327 166.729,269.708 167.439,267.398 167.532,264.528 167.645,261.036 167.798,255.705 165.861,252.851 164.015,250.130 159.848,247.636 156.561,247.520 152.997,247.394 149.278,250.528 145.212,252.997 139.846,256.255 134.409,260.086 127.634,266.133 116.434,276.130 96.779,298.011 86.528,309.807 79.941,317.387 74.981,322.716 71.041,329.125 67.693,334.571 62.347,344.363 63.645,345.397 65.370,346.773 80.407,333.667 88.791,326.229 98.366,317.735 109.158,306.122 117.525,296.644 124.661,288.560 131.324,280.813 136.290,273.230 140.441,266.892 146.341,257.689 146.043,254.681 145.938,253.628 145.286,252.704 144.426,252.690 141.345,252.639 130.379,268.187 122.814,277.583 113.597,289.033 99.015,307.027 93.557,316.825 90.661,322.025 87.654,328.429 88.497,329.652 88.841,330.151 89.853,329.924 90.791,329.625 92.721,329.012 95.816,326.891 98.789,324.113 103.968,319.273 112.434,307.874 117.118,301.025 120.557,295.997 123.136,292.313 125.130,287.309 127.243,282.008 129.108,275.188 129.190,269.951 129.258,265.648 128.520,260.452 126.819,258.154 125.715,256.662 124.400,256.069 122.353,255.746 118.560,255.148 111.345,256.365 105.225,258.892 96.666,262.425 84.020,272.233 77.141,278.162 72.508,282.155 69.748,285.423 66.618,289.468 63.505,293.492 59.518,299.350 58.401,302.360 57.871,303.792 57.684,304.759 57.910,305.782 58.122,306.746 58.743,307.735 59.586,308.361 60.598,309.113 61.949,309.836 63.851,309.604 68.374,309.053 79.580,301.363 85.569,296.991 90.375,293.483 93.404,290.531 97.569,286.142 102.928,280.495 110.451,271.870 114.462,265.363 117.511,260.418 119.556,255.401 120.802,251.254 121.716,248.209 122.856,244.794 122.141,243.020 121.661,241.827 120.366,241.315 119.127,240.758 117.587,240.067 115.560,239.509 113.422,239.598 110.613,239.714 107.562,240.492 103.771,242.408 96.887,245.888 84.784,255.738 77.438,262.536 71.307,268.211 65.465,274.894 62.038,279.746 59.862,282.826 58.171,284.950 57.573,287.917 56.949,291.012 57.809,296.413 58.605,297.996 58.916,298.614 59.191,298.897 59.744,299.038 60.683,299.277 62.229,298.716 64.059,297.978 67.827,296.460 76.034,291.811 80.344,288.539 83.657,286.024 85.376,284.287 88.301,280.772 93.077,275.032 101.021,262.549 104.813,256.147 107.108,252.273 108.935,249.397 109.816,246.509 110.465,244.382 111.193,242.322 110.482,240.656 109.678,238.774 107.130,236.422 104.495,236.101 100.317,235.593 92.158,240.829 87.140,243.610 82.913,245.952 80.335,247.843 76.092,251.230 69.500,256.492 56.710,270.553 52.257,273.147 50.816,273.987 49.287,274.579 49.030,274.185 48.072,272.719 68.451,248.177 80.256,238.973 91.383,230.298 111.503,224.101 117.361,219.701 119.488,218.103 121.448,216.339 121.166,215.708 120.889,215.090 118.170,215.370 115.854,215.878 110.919,216.959 101.383,220.740 93.620,225.265 83.617,231.094 69.598,241.979 61.861,249.704 56.426,255.130 53.015,262.199 49.775,265.359 48.055,267.036 45.787,268.937 45.283,268.651 44.972,268.474 45.041,267.511 45.483,266.545 47.229,262.736 59.998,250.510 68.264,242.802 77.077,234.583 87.629,225.221 96.996,218.849 104.863,213.498 116.534,207.029 120.152,206.208 121.168,205.978 122.214,206.165 122.230,206.319 122.272,206.733 112.563,208.250 107.720,210.100 102.436,212.120 97.324,215.847 91.843,218.267 86.268,220.729 79.435,222.458 74.533,224.713 70.689,226.482 67.494,227.894 64.601,230.216 61.738,232.512 59.949,235.034 57.238,238.534 53.185,243.766 42.535,257.729 43.357,259.106 43.600,259.513 44.393,259.250 45.513,258.892 51.070,257.114 77.098,241.277 91.810,232.383 105.582,224.057 120.804,212.688 131.232,207.251 137.591,203.936 147.233,200.476 147.283,200.584 147.300,200.621 146.027,200.896 145.417,201.540 144.164,202.862 143.332,207.000 141.808,209.622 140.177,212.427 137.646,214.508 135.812,217.789 133.470,221.982 131.398,227.295 129.590,233.105 127.343,240.326 124.778,252.552 124.079,258.032 123.741,260.682 123.075,262.995 123.864,263.998 124.436,264.725 125.728,264.854 126.933,264.627 129.024,264.232 131.736,262.076 134.853,259.492 140.587,254.738 157.331,241.493 156.899,236.371 156.653,233.440 151.641,231.531 148.519,230.117 145.357,228.685 142.033,228.367 138.024,227.886 132.777,227.257 119.656,227.441 119.657,227.348 119.658,227.250 132.705,227.887 140.497,227.348 150.558,226.653 171.762,224.498 174.908,222.569 175.570,222.163 175.906,221.797 175.788,221.306 175.447,219.892 168.889,217.045 164.532,215.322 159.104,213.174 145.309,210.861 145.432,210.143 145.604,209.141 173.387,211.799 183.757,213.010 190.901,213.845 201.648,216.352 201.767,215.878 201.868,215.475 193.808,212.684 189.341,211.576 184.360,210.342 176.661,210.322 173.185,209.091 171.357,208.443 169.595,206.549 169.285,206.814 169.068,207.000 169.315,208.241 170.095,208.884 172.880,211.177 197.537,215.184 197.944,213.966 198.322,212.831 176.447,202.255 175.959,202.974 175.633,203.452 182.121,209.543 184.084,210.242 184.963,210.555 186.202,210.412 186.273,210.143 186.397,209.676 183.127,207.776 180.695,206.609 176.778,204.730 167.816,203.067 164.488,201.062 162.712,199.991 160.706,198.163 160.932,197.716 161.205,197.178 165.910,198.918 167.906,199.015 169.389,199.086 171.049,199.165 171.811,198.672 172.305,198.353 172.808,197.736 172.613,197.238 171.959,195.571 160.513,192.321 155.091,191.557 150.609,190.926 142.614,191.150 142.504,191.981 142.335,193.247 164.836,199.741 170.440,200.584 172.776,200.935 175.466,200.889 175.515,200.584 175.581,200.172 169.862,198.179 166.738,197.681 163.354,197.142 160.317,197.403 155.886,197.716 148.793,198.218 136.432,199.876 128.351,201.540 121.842,202.880 111.216,204.509 110.960,206.319 110.801,207.440 114.547,208.976 116.857,209.932 119.668,211.094 122.819,211.867 126.817,212.314 132.661,212.969 140.977,212.497 148.697,212.054 157.426,211.554 176.312,208.206 176.520,209.187 176.733,210.186 158.994,215.887 148.939,218.212 137.344,220.892 115.822,223.172 110.717,223.525 109.446,223.613 108.369,223.722 108.324,223.525 108.265,223.269 110.242,222.384 111.950,221.761 115.578,220.437 124.852,219.284 129.599,217.311 133.155,215.834 137.694,213.403 138.356,212.054 138.591,211.573 138.011,210.937 138.202,210.766 138.405,210.583 139.473,211.277 139.636,211.098 139.801,210.918 139.610,209.967 139.158,209.665 138.189,209.016 134.569,209.710 132.213,210.143 129.669,210.610 127.282,212.011 124.437,212.500 121.138,213.069 115.257,212.325 113.521,213.010 112.877,213.264 112.296,213.697 112.375,213.985 112.559,214.660 116.926,215.061 120.519,215.400 127.394,216.047 150.473,214.455 150.788,215.878 150.931,216.521 147.490,217.079 145.219,218.582 140.692,221.579 132.326,228.767 126.690,234.746 120.971,240.812 115.679,250.447 111.202,254.770 108.543,257.338 106.804,257.461 103.951,259.984 98.812,264.528 83.564,280.377 84.294,281.257 84.885,281.970 95.566,274.868 100.414,271.158 104.953,267.685 107.869,263.661 112.650,259.833 118.552,255.109 126.535,249.496 133.566,245.420 140.092,241.636 150.405,237.860 153.295,235.951 154.206,235.349 154.990,234.871 154.930,234.517 154.876,234.200 154.115,233.946 153.320,233.863 151.292,233.651 145.635,234.301 142.200,235.864 138.525,237.536 134.368,241.504 132.109,243.956 130.657,245.531 129.376,246.826 129.121,248.377 128.880,249.847 128.852,252.196 130.395,252.996 136.590,256.210 196.864,231.289 203.048,226.908 204.164,226.118 204.841,225.319 204.635,224.958 204.179,224.163 195.636,225.842 192.514,226.809 190.396,227.465 189.257,228.307 187.429,229.260 185.212,230.416 182.853,231.401 180.191,233.329 176.235,236.195 167.867,246.089 166.670,245.717 166.364,245.623 166.655,244.674 166.400,244.554 166.059,244.393 164.471,245.471 164.488,245.509 164.560,245.667 197.988,232.798 197.743,231.850 197.639,231.446 193.620,231.652 191.272,232.599 187.679,234.048 181.916,239.129 179.149,241.841 177.423,243.533 176.720,245.886 175.458,246.488 174.641,246.878 174.043,246.683 172.968,246.465 170.756,246.017 167.682,244.608 163.223,242.445 152.494,237.240 118.881,216.069 110.004,212.532 107.249,211.434 104.290,211.138 104.299,211.098 104.316,211.030 116.190,214.324 121.996,214.944 127.497,215.531 138.030,215.890 138.248,214.922 138.402,214.238 133.869,212.233 130.924,211.430 126.966,210.349 121.505,209.615 116.322,210.143 110.169,210.769 103.080,213.468 96.529,216.068 89.612,218.813 79.050,221.300 75.935,226.392 73.304,230.694 75.740,237.310 76.071,242.831 76.410,248.471 76.744,255.711 77.983,259.881 78.763,262.506 80.626,264.043 81.037,265.957 81.368,267.497 80.913,268.893 80.850,270.362 "/>
	<path fill="none" stroke="#A82222" stroke-width="16.00" stroke-linecap="round" stroke-linejoin="round" d="M121.952 213.966C120.949,213.281 120.002,212.211 118.941,211.911 117.970,211.636 117.323,211.703 115.883,212.054 111.793,213.053 98.125,221.290 93.438,222.408 91.445,222.883 89.256,222.997 88.975,222.569 88.835,222.355 89.034,221.994 89.453,221.569 91.929,219.057 124.357,205.571 124.085,204.407 124.015,204.110 122.713,204.048 121.565,204.407 118.113,205.488 108.674,212.955 102.849,217.399 97.410,221.548 90.994,226.079 87.613,230.144 85.305,232.919 84.472,234.987 83.064,238.214 81.175,242.546 79.677,248.813 77.983,254.112 "/>
	<path fill="none" stroke="#A82222" stroke-width="16.00" stroke-linecap="round" stroke-linejoin="round" d="M110.033 219.053C108.259,219.503 106.840,219.447 104.712,220.404 100.805,222.160 90.545,231.470 89.406,230.794 89.021,230.565 89.106,229.390 89.611,228.685 90.846,226.964 98.311,225.589 101.147,223.496 103.267,221.931 104.646,220.142 105.817,218.192 106.946,216.310 108.890,212.823 108.129,212.037 107.060,210.935 99.918,214.471 95.870,216.214 91.622,218.043 85.263,221.311 83.254,222.861 82.507,223.438 81.819,223.996 81.923,224.315 82.037,224.660 83.151,224.787 84.199,224.765 86.579,224.714 92.189,223.313 95.815,221.948 99.298,220.636 103.198,218.704 105.585,216.834 107.310,215.483 109.777,213.118 109.398,212.523 108.640,211.334 91.162,219.064 87.351,219.053 86.014,219.049 84.690,218.730 84.646,218.235 84.540,217.037 95.488,213.437 99.372,210.738 102.341,208.675 103.691,205.816 106.481,204.200 109.420,202.497 113.468,201.255 116.697,200.965 119.500,200.714 123.734,200.184 124.709,201.996 126.569,205.455 116.886,219.080 111.752,228.419 105.634,239.552 97.180,250.300 89.925,264.086 80.690,281.631 68.422,314.406 62.320,325.939 59.833,330.640 57.987,335.682 56.404,335.513 54.881,335.351 54.004,330.068 52.918,325.698 50.886,317.528 49.727,295.631 47.617,289.676 46.856,287.527 45.987,285.448 45.199,285.594 43.005,286.001 39.705,312.081 39.041,321.872 38.594,328.455 38.970,338.449 39.585,338.501 40.147,338.548 41.691,330.858 42.357,324.914 43.590,313.894 43.406,277.258 43.393,277.258 43.380,277.258 40.134,331.409 42.124,331.705 43.729,331.944 51.993,297.717 51.644,297.606 51.390,297.524 46.610,308.621 45.297,315.204 43.729,323.066 43.029,333.522 44.028,341.860 44.945,349.514 47.012,356.847 50.375,363.438 53.766,370.085 64.743,381.189 64.356,381.544 64.087,381.790 58.880,377.615 56.309,374.132 52.379,368.808 47.774,354.566 45.297,351.062 44.447,349.860 43.577,348.823 43.169,348.934 42.868,349.017 42.715,349.769 42.759,350.528 42.875,352.552 45.132,358.250 46.968,361.462 48.657,364.416 50.467,366.311 53.135,369.225 57.123,373.583 64.970,379.477 69.206,384.491 72.628,388.541 74.548,393.705 77.278,396.494 79.186,398.444 82.924,399.534 83.060,400.566 83.125,401.065 82.682,401.671 81.999,401.835 79.384,402.464 60.238,391.342 59.655,392.315 59.044,393.334 76.838,408.643 80.386,408.999 81.507,409.111 82.391,408.646 82.742,407.779 83.548,405.789 81.281,398.926 78.300,394.536 73.977,388.172 59.616,377.367 55.869,375.597 54.818,375.100 53.983,374.865 53.597,375.179 53.214,375.491 53.252,376.525 53.548,377.456 54.177,379.437 56.882,383.070 59.669,385.743 63.371,389.293 70.399,394.533 74.725,395.922 77.499,396.813 79.657,396.743 82.192,396.123 85.210,395.385 89.009,392.880 91.443,390.988 93.372,389.488 94.441,388.308 96.006,386.149 98.414,382.826 101.270,377.408 103.540,372.298 106.139,366.449 108.877,358.926 110.388,352.812 111.673,347.616 113.684,338.640 112.571,338.052 111.889,337.691 109.816,339.930 108.446,341.860 105.944,345.384 102.410,354.305 100.993,359.039 100.054,362.175 99.230,364.547 99.582,367.140 99.935,369.741 101.625,373.950 103.125,374.618 104.092,375.049 105.138,374.444 106.426,373.631 109.267,371.837 114.308,365.809 117.683,361.168 121.272,356.234 125.315,350.067 127.168,344.716 128.718,340.240 130.466,333.729 129.072,331.567 128.200,330.214 125.672,330.128 124.073,330.118 122.602,330.110 121.751,330.480 119.830,331.295 114.958,333.364 101.901,339.836 95.435,345.668 89.682,350.856 82.389,363.874 82.132,363.706 81.986,363.611 84.255,359.142 85.761,357.403 87.170,355.777 88.867,355.566 90.764,353.474 94.712,349.120 105.810,330.399 105.590,330.248 105.414,330.127 97.237,340.215 95.169,344.436 93.750,347.333 92.822,350.241 92.897,352.411 92.949,353.935 93.273,355.337 94.288,356.261 95.625,357.479 98.900,357.981 101.171,358.043 103.368,358.104 105.098,357.625 107.694,356.734 112.009,355.253 124.233,348.761 124.134,348.524 124.093,348.424 122.507,348.683 121.074,349.541 115.487,352.885 84.222,380.809 85.483,383.228 86.036,384.289 90.748,382.698 94.710,381.329 102.866,378.513 122.448,368.100 130.443,363.531 134.684,361.107 136.722,359.449 139.862,357.409 "/>
	<path fill="none" stroke="#A82222" stroke-width="16.00" stroke-linecap="round" stroke-linejoin="round" d="M325.045 268.714C309.108,297.064 288.509,332.158 277.232,353.765 270.469,366.723 260.518,384.345 261.973,385.362 263.284,386.280 276.552,370.974 281.860,364.911 285.772,360.442 287.043,357.650 291.443,352.734 299.260,343.999 325.488,317.677 326.312,318.414 327.272,319.274 295.576,355.625 285.159,370.647 277.825,381.222 266.592,395.999 268.064,398.821 268.636,399.916 270.842,399.817 273.018,399.138 279.146,397.225 293.458,383.883 303.884,374.736 315.617,364.444 340.511,341.263 339.607,340.012 339.182,339.423 334.275,342.317 329.822,345.103 318.564,352.146 273.651,387.655 273.201,387.108 273.008,386.873 279.833,381.648 282.813,378.355 285.976,374.861 287.700,371.206 291.544,366.605 297.693,359.247 313.445,344.525 317.156,339.282 318.458,337.443 319.621,335.515 319.281,335.192 318.865,334.797 315.959,336.384 313.333,338.674 304.447,346.424 273.923,385.864 264.582,400.720 259.867,408.219 254.480,417.804 255.718,418.764 257.433,420.093 275.079,402.814 284.968,393.693 295.862,383.645 311.446,368.855 318.157,360.767 321.596,356.623 325.548,351.706 325.045,350.609 324.846,350.174 323.974,350.212 323.120,350.387 321.030,350.816 317.121,353.548 313.041,356.157 306.207,360.528 294.107,368.852 286.474,375.043 280.148,380.174 272.703,389.119 270.016,390.222 269.312,390.511 268.688,390.565 268.480,390.274 268.124,389.775 269.148,387.902 270.081,386.068 272.157,381.991 280.997,370.256 282.236,367.434 282.566,366.681 282.851,366.077 282.626,365.899 282.183,365.547 279.370,367.002 277.162,368.730 272.125,372.675 254.926,391.440 256.019,392.822 256.941,393.987 269.507,386.491 276.139,382.142 283.457,377.344 297.984,365.085 297.821,364.865 297.697,364.698 289.881,369.745 284.584,374.006 275.346,381.436 249.730,403.601 248.799,407.368 248.645,407.992 248.901,408.441 249.242,408.634 249.717,408.904 250.576,408.494 251.797,408.111 255.270,407.023 264.071,403.555 271.176,399.798 280.734,394.743 302.713,378.472 303.353,379.277 303.764,379.795 296.783,386.154 292.113,390.284 285.248,396.354 271.319,405.067 265.536,411.480 261.897,415.515 257.587,420.538 258.274,422.811 258.746,424.374 261.343,424.991 264.096,425.370 269.989,426.181 292.583,420.037 292.939,421.297 293.296,422.562 273.545,431.149 266.017,433.005 260.960,434.252 256.278,434.251 252.804,433.976 250.496,433.792 247.295,433.537 247.111,432.633 246.873,431.460 251.456,428.129 255.055,426.804 260.629,424.752 272.246,426.045 278.620,425.096 283.055,424.435 289.815,422.795 289.774,422.563 289.702,422.156 264.636,426.880 254.827,426.995 247.710,427.079 236.405,425.967 236.383,425.096 236.357,423.997 256.661,422.465 265.486,420.664 272.988,419.132 278.997,418.178 286.094,415.365 294.508,412.029 306.667,404.303 312.297,400.943 315.058,399.295 317.003,398.515 318.340,397.044 319.344,395.939 320.521,393.703 320.205,393.439 319.474,392.827 308.554,402.890 302.890,406.732 297.844,410.155 288.308,413.855 288.008,415.599 287.915,416.136 288.430,416.619 289.057,416.865 290.532,417.443 294.632,416.540 298.084,415.673 303.053,414.424 309.742,412.134 315.742,409.003 322.833,405.305 332.105,398.137 337.490,394.106 340.835,391.603 345.605,388.652 345.369,387.678 345.245,387.171 344.070,386.968 342.667,387.108 336.915,387.682 308.592,402.572 300.075,405.454 296.566,406.641 292.736,408.011 292.440,407.368 291.651,405.659 327.456,383.991 337.789,375.059 343.845,369.824 347.752,364.848 351.028,361.247 353.051,359.023 356.046,356.946 355.797,355.723 355.617,354.838 354.044,353.926 352.367,354.040 346.990,354.403 320.799,377.077 319.782,375.910 318.878,374.874 340.539,352.900 340.394,352.766 340.261,352.643 327.410,365.466 322.360,371.453 318.171,376.419 314.699,381.083 311.778,385.849 309.177,390.093 307.538,394.286 305.419,398.504 "/>
	<path fill="none" stroke="#A82222" stroke-width="16.00" stroke-linecap="round" stroke-linejoin="round" d="M329.477 254.785C328.805,254.574 328.042,253.760 327.461,254.152 325.152,255.710 324.739,275.402 324.828,287.363 324.934,301.439 327.532,322.390 329.161,333.293 330.073,339.398 330.186,345.738 332.070,347.464 332.987,348.303 334.272,348.512 335.468,347.854 338.761,346.043 343.936,332.538 346.779,324.481 349.583,316.534 351.518,307.544 352.484,299.863 353.313,293.269 353.311,286.895 352.903,281.242 352.557,276.458 351.762,271.620 350.687,268.081 349.911,265.528 349.268,263.592 347.836,261.746 346.292,259.755 343.590,256.802 341.522,256.700 339.658,256.608 337.802,258.354 336.019,260.273 333.143,263.368 329.342,271.479 327.792,275.244 326.922,277.358 326.505,278.290 326.312,280.427 326.012,283.738 326.505,293.069 327.578,293.309 328.314,293.474 329.973,290.594 330.705,288.083 332.163,283.076 331.706,271.420 331.377,263.893 331.086,257.267 330.467,250.316 329.219,245.262 328.315,241.606 325.172,236.387 325.678,236.108 326.673,235.561 342.161,256.403 348.154,266.498 353.432,275.389 358.425,293.461 360.500,293.089 362.028,292.815 362.140,280.995 361.766,277.253 361.556,275.141 361.174,274.479 360.373,272.386 358.774,268.206 355.105,260.333 351.549,254.218 347.591,247.411 337.045,233.850 337.391,233.576 337.607,233.405 341.558,237.626 343.940,240.757 347.658,245.645 353.476,253.323 356.548,260.810 359.877,268.924 361.550,279.838 362.550,287.980 363.350,294.488 363.928,305.605 363.033,305.752 361.854,305.945 358.206,286.388 354.010,276.309 349.196,264.744 340.513,248.450 334.877,240.571 331.687,236.111 328.898,231.621 326.019,231.068 323.942,230.668 321.882,232.529 319.903,233.950 317.489,235.685 315.035,238.001 312.931,241.212 310.002,245.681 307.226,253.616 305.421,259.212 303.920,263.862 302.987,266.379 302.365,272.325 301.096,284.464 301.170,328.030 303.519,328.438 304.694,328.641 306.813,321.142 308.517,315.321 311.685,304.501 314.690,280.210 318.415,267.844 320.908,259.567 326.010,247.509 326.468,247.665 327.237,247.925 314.352,288.204 309.999,306.496 306.262,322.205 300.347,350.458 301.303,350.704 302.608,351.038 326.539,279.102 326.740,270.798 326.777,269.278 326.510,268.176 326.018,268.081 325.234,267.930 323.483,271.188 321.755,273.803 318.402,278.875 312.114,288.233 308.232,297.007 303.689,307.272 301.974,319.292 297.172,332.069 291.117,348.182 277.386,373.141 273.682,385.607 271.806,391.923 270.402,397.307 271.230,400.411 271.681,402.101 272.646,402.837 274.045,403.852 276.171,405.394 280.348,407.275 283.612,407.565 286.857,407.854 289.850,407.072 293.570,405.619 299.151,403.440 307.126,398.471 313.015,393.651 319.011,388.743 329.211,376.393 329.161,376.345 329.079,376.268 298.532,410.149 286.942,420.311 279.816,426.559 267.941,433.008 268.381,433.959 268.610,434.455 271.951,433.416 274.462,432.518 279.007,430.893 286.178,426.266 292.858,423.535 300.388,420.458 309.555,418.550 317.538,415.309 325.450,412.097 340.106,403.444 340.557,404.203 341.229,405.333 295.569,438.352 294.472,437.309 294.171,437.023 295.400,435.260 296.774,433.740 300.553,429.560 313.876,421.958 321.880,413.699 331.328,403.949 341.866,389.305 348.698,377.848 354.273,368.497 357.451,360.948 361.213,350.780 365.756,338.503 372.795,314.745 373.049,308.941 373.115,307.436 372.809,306.087 372.502,306.068 371.955,306.036 370.480,311.594 369.672,314.967 368.648,319.237 368.468,324.154 367.249,329.735 365.611,337.235 363.475,347.156 360.108,355.800 356.493,365.077 350.466,375.848 345.853,383.479 342.365,389.250 334.803,397.159 335.625,398.055 336.376,398.873 344.917,393.609 348.471,390.590 351.729,387.823 354.421,384.301 356.411,380.953 358.199,377.944 358.904,375.994 360.184,371.597 362.957,362.064 367.605,335.449 368.811,324.977 369.416,319.717 369.470,318.072 369.364,313.033 369.180,304.310 367.918,283.523 366.198,277.354 365.553,275.041 364.694,272.948 363.982,272.829 363.565,272.760 363.271,273.250 362.757,274.055 359.920,278.493 349.845,307.549 344.570,323.534 339.716,338.245 333.053,366.594 332.010,366.376 331.152,366.197 334.771,347.644 335.808,336.458 337.124,322.275 338.852,298.702 338.654,288.057 338.556,282.806 338.130,276.351 337.524,276.312 336.965,276.275 335.885,282.062 335.262,286.096 334.282,292.442 333.810,301.531 333.296,310.866 332.630,322.967 332.377,352.601 332.010,352.603 331.773,352.603 331.155,342.168 331.377,335.382 331.698,325.520 333.190,309.340 335.082,299.171 336.496,291.572 338.425,285.516 340.424,279.558 342.158,274.391 344.176,266.596 346.120,265.367 346.868,264.894 347.764,264.975 348.386,265.506 349.687,266.618 350.250,270.933 350.530,275.218 351.063,283.362 349.206,298.067 347.419,311.007 345.268,326.576 336.044,361.585 337.708,362.100 339.059,362.518 347.510,342.136 351.453,330.694 355.922,317.728 360.515,287.790 362.400,288.046 364.771,288.367 360.373,357.698 361.133,357.740 361.734,357.773 364.770,324.484 365.144,314.500 365.342,309.225 365.143,307.089 364.932,302.385 364.637,295.804 364.680,285.671 363.226,278.735 362.024,273.006 357.498,265.613 357.805,263.487 357.895,262.869 358.282,262.327 358.609,262.383 360.071,262.631 365.790,288.801 366.515,288.657 367.037,288.554 365.952,278.816 365.106,274.476 364.364,270.666 364.173,268.217 362.010,263.940 357.701,255.422 341.468,235.591 335.626,229.278 333.152,226.605 331.661,224.881 329.794,224.079 328.490,223.519 327.036,223.173 325.995,223.762 324.616,224.543 323.564,226.910 323.044,229.765 321.957,235.739 325.515,248.730 325.877,258.910 326.275,270.062 327.032,283.925 324.975,294.038 323.310,302.225 320.127,309.908 316.529,315.459 313.705,319.815 309.167,324.361 306.613,325.591 305.416,326.167 304.537,326.113 303.517,325.906 302.388,325.676 301.475,325.044 300.173,324.068 297.797,322.286 294.544,318.935 291.170,315.087 286.002,309.192 278.389,297.398 273.041,291.382 269.390,287.276 267.081,284.762 263.059,281.699 258.160,277.969 252.553,274.291 245.269,271.245 235.244,267.053 221.780,263.036 207.501,261.165 189.523,258.808 158.030,262.846 145.532,261.175 139.971,260.432 133.732,257.823 133.694,257.951 133.622,258.190 162.364,266.119 174.472,271.288 184.869,275.727 192.741,280.661 202.378,286.204 213.127,292.388 226.779,302.184 235.876,306.887 241.724,309.911 246.374,310.939 250.856,313.241 254.765,315.247 257.273,318.394 261.416,319.681 266.330,321.206 273.138,321.141 278.785,320.630 284.302,320.131 290.127,319.136 294.927,316.764 299.655,314.427 304.432,311.131 307.421,306.598 310.793,301.484 311.460,294.469 313.048,286.884 315.140,276.891 315.750,260.359 317.827,251.626 319.101,246.266 320.740,243.180 322.196,238.957 "/>
	<path fill="none" stroke="#A82222" stroke-width="16.00" stroke-linecap="round" stroke-linejoin="round" d="M366.198 306.702C365.420,315.722 365.256,324.819 363.865,333.764 362.468,342.747 360.013,353.888 357.818,360.482 356.459,364.565 353.309,369.955 353.536,370.071 353.988,370.304 372.212,341.828 374.572,334.131 375.573,330.864 375.510,326.736 375.062,326.645 374.107,326.451 367.492,352.237 363.858,358.866 362.011,362.236 360.455,363.994 358.394,365.788 356.545,367.399 354.311,368.183 352.270,369.381 "/>
	<path fill="none" stroke="#A82222" stroke-width="5.00" stroke-linecap="round" stroke-linejoin="round" d="M46.173 341.197C47.103,342.127 48.033,343.057 48.963,343.987 "/>
	<path fill="none" stroke="#A82222" stroke-width="5.00" stroke-linecap="round" stroke-linejoin="round" d="M53.496 337.361C55.123,344.017 57.712,357.408 58.378,357.328 58.839,357.272 58.378,350.758 58.378,347.474 "/>
	<path fill="none" stroke="#A82222" stroke-width="5.00" stroke-linecap="round" stroke-linejoin="round" d="M59.075 337.710C59.109,337.860 59.143,338.010 59.177,338.160 "/>
	<path fill="none" stroke="#A82222" stroke-width="5.00" stroke-linecap="round" stroke-linejoin="round" d="M56.983 352.356C56.983,351.949 56.983,351.542 56.983,351.135 "/>
	<path fill="none" stroke="#A82222" stroke-width="5.00" stroke-linecap="round" stroke-linejoin="round" d="M58.727 346.079C58.843,348.811 59.285,354.250 59.075,354.274 58.805,354.304 56.963,340.793 56.634,340.830 56.270,340.870 57.741,357.597 57.332,357.645 56.944,357.691 54.463,342.837 54.443,342.841 54.418,342.846 57.066,356.856 58.378,363.863 "/>
	<path fill="none" stroke="#A82222" stroke-width="5.00" stroke-linecap="round" stroke-linejoin="round" d="M54.891 341.546C55.296,341.834 55.701,342.123 56.105,342.411 "/>
	<path fill="none" stroke="#A82222" stroke-width="5.00" stroke-linecap="round" stroke-linejoin="round" d="M59.075 341.197C58.669,341.081 58.036,340.674 57.855,340.848 57.595,341.098 58.050,342.125 58.468,343.391 59.844,347.558 69.733,369.389 69.537,369.479 69.393,369.544 65.571,360.323 62.778,355.663 59.605,350.369 51.943,339.146 51.168,339.566 50.326,340.022 56.825,355.623 59.593,361.407 61.533,365.460 65.023,371.520 65.352,371.361 65.957,371.068 51.280,339.559 51.062,335.284 51.016,334.378 51.171,333.789 51.536,333.610 51.938,333.412 52.668,333.931 53.496,334.397 55.260,335.390 58.611,338.233 61.168,340.151 "/>
	<path fill="none" stroke="#A82222" stroke-width="5.00" stroke-linecap="round" stroke-linejoin="round" d="M188.448 385.135C188.448,385.367 188.448,385.600 188.448,385.832 "/>
	<path fill="none" stroke="#A82222" stroke-width="5.00" stroke-linecap="round" stroke-linejoin="round" d="M195.771 372.930C190.983,374.336 185.721,375.041 181.407,377.148 177.297,379.156 174.048,382.437 170.368,385.082 "/>
</g>
<g id="layer4">
	<path fill="none" stroke="#8C1919" stroke-width="16.00" stroke-linecap="round" stroke-linejoin="round" d="M203.747 428.721C200.645,430.726 198.975,432.867 194.440,434.735 185.015,438.616 163.213,444.600 147.600,444.600 131.987,444.600 115.137,441.012 100.760,434.735 86.267,428.407 72.055,418.242 61.050,406.641 49.925,394.912 40.491,379.803 34.517,364.596 28.498,349.274 25.200,331.532 25.200,315.000 25.200,298.468 28.498,280.726 34.517,265.404 40.491,250.197 49.925,235.088 61.050,223.359 72.055,211.758 86.267,201.593 100.760,195.265 115.137,188.988 131.987,185.400 147.600,185.400 163.213,185.400 184.653,191.068 194.440,195.265 199.490,197.430 201.437,200.079 204.936,202.486 "/>
	<path fill="none" stroke="#8C1919" stroke-width="16.00" stroke-linecap="round" stroke-linejoin="round" d="M204.598 203.065C208.385,200.465 210.569,197.573 215.960,195.265 226.005,190.963 247.187,185.400 262.800,185.400 278.413,185.400 295.263,188.988 309.640,195.265 324.133,201.593 338.345,211.758 349.350,223.359 360.475,235.088 369.909,250.197 375.883,265.404 381.902,280.726 385.200,298.468 385.200,315.000 385.200,331.532 381.902,349.274 375.883,364.596 369.909,379.804 360.475,394.912 349.350,406.641 338.345,418.242 324.133,428.407 309.640,434.735 295.263,441.012 278.413,444.600 262.800,444.600 247.187,444.600 225.735,438.824 215.960,434.735 210.967,432.647 209.020,430.141 205.550,427.844 "/>
</g>
<g id="layer7">
	<path fill="none" stroke="#FFFFFF" stroke-width="16.00" stroke-linecap="round" stroke-linejoin="round" d="M79.961 329.400C81.922,307.800 82.118,282.790 85.842,264.600 88.713,250.572 99.396,230.048 97.603,228.600 95.764,227.116 78.959,246.241 74.081,257.400 69.450,267.995 67.313,281.559 68.201,293.400 69.113,305.568 76.041,317.400 79.961,329.400 "/>
</g>
<g id="layer11">
</g>
</svg>
